REM DIRINDEX 1\5,1\2\6,1\2\7,1\3\8,1\3\9,1\3\10,1\3\11,1\4\12,1\4\13,1\4\14
REM DIRNAME cjc043,folder01,folder02,folder03,folder04,folder05,folder06,folder07,folder08,folder09,folder10,folder11,folder12,folder13
TITLE ""
FILE "5Q_t_067-082.mp3" MP3
  TRACK 01 AUDIO
    TITLE "6:cjc043_0523"
    INDEX 01 00:00:00
  TRACK 02 AUDIO
    TITLE "0:"
    INDEX 01 00:00:60
  TRACK 03 AUDIO
    TITLE "7:cjc043_0524"
    INDEX 01 00:01:36
  TRACK 04 AUDIO
    TITLE "0:"
    INDEX 01 00:02:43
  TRACK 05 AUDIO
    TITLE "6:cjc043_0525"
    INDEX 01 00:03:14
  TRACK 06 AUDIO
    TITLE "0:"
    INDEX 01 00:04:11
  TRACK 07 AUDIO
    TITLE "7:cjc043_0526"
    INDEX 01 00:04:58
  TRACK 08 AUDIO
    TITLE "0:"
    INDEX 01 00:05:65
  TRACK 09 AUDIO
    TITLE "6:cjc043_0527"
    INDEX 01 00:06:43
  TRACK 10 AUDIO
    TITLE "0:"
    INDEX 01 00:07:54
  TRACK 11 AUDIO
    TITLE "7:cjc043_0528"
    INDEX 01 00:08:32
  TRACK 12 AUDIO
    TITLE "0:"
    INDEX 01 00:10:74
  TRACK 13 AUDIO
    TITLE "6:cjc043_0529"
    INDEX 01 00:11:46
  TRACK 14 AUDIO
    TITLE "0:"
    INDEX 01 00:12:54
  TRACK 15 AUDIO
    TITLE "7:cjc043_0530"
    INDEX 01 00:13:33
  TRACK 16 AUDIO
    TITLE "0:"
    INDEX 01 00:14:27
  TRACK 17 AUDIO
    TITLE "6:cjc043_0531"
    INDEX 01 00:15:01
  TRACK 18 AUDIO
    TITLE "0:"
    INDEX 01 00:16:02
  TRACK 19 AUDIO
    TITLE "7:cjc043_0532"
    INDEX 01 00:16:55
  TRACK 20 AUDIO
    TITLE "0:"
    INDEX 01 00:18:07
  TRACK 21 AUDIO
    TITLE "6:cjc043_0533"
    INDEX 01 00:18:58
  TRACK 22 AUDIO
    TITLE "0:"
    INDEX 01 00:19:58
  TRACK 23 AUDIO
    TITLE "7:cjc043_0534"
    INDEX 01 00:20:36
  TRACK 24 AUDIO
    TITLE "0:"
    INDEX 01 00:22:13
  TRACK 25 AUDIO
    TITLE "6:cjc043_0535"
    INDEX 01 00:22:64
  TRACK 26 AUDIO
    TITLE "0:"
    INDEX 01 00:23:73
  TRACK 27 AUDIO
    TITLE "7:cjc043_0536"
    INDEX 01 00:24:51
  TRACK 28 AUDIO
    TITLE "0:"
    INDEX 01 00:25:41
  TRACK 29 AUDIO
    TITLE "6:cjc043_0537"
    INDEX 01 00:26:18
  TRACK 30 AUDIO
    TITLE "0:"
    INDEX 01 00:27:12
  TRACK 31 AUDIO
    TITLE "7:cjc043_0538"
    INDEX 01 00:27:65
  TRACK 32 AUDIO
    TITLE "0:"
    INDEX 01 00:29:62
  TRACK 33 AUDIO
    TITLE "6:cjc043_0539"
    INDEX 01 00:30:40
  TRACK 34 AUDIO
    TITLE "0:"
    INDEX 01 00:31:55
  TRACK 35 AUDIO
    TITLE "7:cjc043_0540"
    INDEX 01 00:32:33
  TRACK 36 AUDIO
    TITLE "0:"
    INDEX 01 00:33:34
  TRACK 37 AUDIO
    TITLE "6:cjc043_0541"
    INDEX 01 00:34:06
  TRACK 38 AUDIO
    TITLE "0:"
    INDEX 01 00:35:10
  TRACK 39 AUDIO
    TITLE "7:cjc043_0542"
    INDEX 01 00:35:63
  TRACK 40 AUDIO
    TITLE "0:"
    INDEX 01 00:36:62
  TRACK 41 AUDIO
    TITLE "6:cjc043_0543"
    INDEX 01 00:37:32
  TRACK 42 AUDIO
    TITLE "0:"
    INDEX 01 00:38:37
  TRACK 43 AUDIO
    TITLE "7:cjc043_0544"
    INDEX 01 00:39:15
  TRACK 44 AUDIO
    TITLE "0:"
    INDEX 01 00:40:34
  TRACK 45 AUDIO
    TITLE "6:cjc043_0545"
    INDEX 01 00:41:08
  TRACK 46 AUDIO
    TITLE "0:"
    INDEX 01 00:41:73
  TRACK 47 AUDIO
    TITLE "7:cjc043_0546"
    INDEX 01 00:42:49
  TRACK 48 AUDIO
    TITLE "0:"
    INDEX 01 00:44:34
  TRACK 49 AUDIO
    TITLE "6:cjc043_0547"
    INDEX 01 00:45:14
  TRACK 50 AUDIO
    TITLE "0:"
    INDEX 01 00:46:25
  TRACK 51 AUDIO
    TITLE "7:cjc043_0548"
    INDEX 01 00:46:74
  TRACK 52 AUDIO
    TITLE "0:"
    INDEX 01 00:48:06
  TRACK 53 AUDIO
    TITLE "6:cjc043_0549"
    INDEX 01 00:48:53
  TRACK 54 AUDIO
    TITLE "0:"
    INDEX 01 00:50:05
  TRACK 55 AUDIO
    TITLE "7:cjc043_0550"
    INDEX 01 00:50:58
  TRACK 56 AUDIO
    TITLE "0:"
    INDEX 01 00:52:04
  TRACK 57 AUDIO
    TITLE "6:cjc043_0551"
    INDEX 01 00:52:53
  TRACK 58 AUDIO
    TITLE "0:"
    INDEX 01 00:53:57
  TRACK 59 AUDIO
    TITLE "7:cjc043_0552"
    INDEX 01 00:54:29
  TRACK 60 AUDIO
    TITLE "0:"
    INDEX 01 00:57:74
  TRACK 61 AUDIO
    TITLE "6:cjc043_0553"
    INDEX 01 00:58:56
  TRACK 62 AUDIO
    TITLE "0:"
    INDEX 01 00:59:69
  TRACK 63 AUDIO
    TITLE "7:cjc043_0554"
    INDEX 01 01:00:49
  TRACK 64 AUDIO
    TITLE "0:"
    INDEX 01 01:02:05
